<mxfile host="Electron" agent="Mozilla/5.0 (Windows NT 10.0; Win64; x64) AppleWebKit/537.36 (KHTML, like Gecko) draw.io/24.7.17 Chrome/128.0.6613.36 Electron/32.0.1 Safari/537.36" version="24.7.17">
  <diagram name="Page-1" id="zV6J8GXCYEAyrWXot4_s">
    <mxGraphModel dx="1884" dy="2202" grid="1" gridSize="10" guides="1" tooltips="1" connect="1" arrows="1" fold="1" page="1" pageScale="1" pageWidth="850" pageHeight="1100" math="0" shadow="0">
      <root>
        <mxCell id="0" />
        <mxCell id="1" parent="0" />
        <mxCell id="-v6uZ1tCKpK5pTf1HN96-3" style="edgeStyle=orthogonalEdgeStyle;rounded=0;orthogonalLoop=1;jettySize=auto;html=1;exitX=0.5;exitY=1;exitDx=0;exitDy=0;exitPerimeter=0;entryX=0.5;entryY=0;entryDx=0;entryDy=0;" edge="1" parent="1" source="-v6uZ1tCKpK5pTf1HN96-1" target="-v6uZ1tCKpK5pTf1HN96-2">
          <mxGeometry relative="1" as="geometry" />
        </mxCell>
        <mxCell id="-v6uZ1tCKpK5pTf1HN96-1" value="Start" style="strokeWidth=2;html=1;shape=mxgraph.flowchart.start_1;whiteSpace=wrap;" vertex="1" parent="1">
          <mxGeometry x="375" y="-1070" width="100" height="60" as="geometry" />
        </mxCell>
        <mxCell id="-v6uZ1tCKpK5pTf1HN96-2" value="Input Item Price" style="rounded=1;whiteSpace=wrap;html=1;absoluteArcSize=1;arcSize=14;strokeWidth=2;" vertex="1" parent="1">
          <mxGeometry x="375" y="-950" width="100" height="50" as="geometry" />
        </mxCell>
        <mxCell id="-v6uZ1tCKpK5pTf1HN96-11" style="edgeStyle=orthogonalEdgeStyle;rounded=0;orthogonalLoop=1;jettySize=auto;html=1;exitX=1;exitY=0.5;exitDx=0;exitDy=0;exitPerimeter=0;entryX=0;entryY=0.5;entryDx=0;entryDy=0;" edge="1" parent="1" source="-v6uZ1tCKpK5pTf1HN96-4" target="-v6uZ1tCKpK5pTf1HN96-6">
          <mxGeometry relative="1" as="geometry" />
        </mxCell>
        <mxCell id="-v6uZ1tCKpK5pTf1HN96-13" style="edgeStyle=orthogonalEdgeStyle;rounded=0;orthogonalLoop=1;jettySize=auto;html=1;exitX=0;exitY=0.5;exitDx=0;exitDy=0;exitPerimeter=0;entryX=1;entryY=0.5;entryDx=0;entryDy=0;" edge="1" parent="1" source="-v6uZ1tCKpK5pTf1HN96-4" target="-v6uZ1tCKpK5pTf1HN96-12">
          <mxGeometry relative="1" as="geometry" />
        </mxCell>
        <mxCell id="-v6uZ1tCKpK5pTf1HN96-4" value="Price Valid?" style="strokeWidth=2;html=1;shape=mxgraph.flowchart.decision;whiteSpace=wrap;" vertex="1" parent="1">
          <mxGeometry x="375" y="-840" width="100" height="100" as="geometry" />
        </mxCell>
        <mxCell id="-v6uZ1tCKpK5pTf1HN96-5" style="edgeStyle=orthogonalEdgeStyle;rounded=0;orthogonalLoop=1;jettySize=auto;html=1;exitX=0.5;exitY=1;exitDx=0;exitDy=0;entryX=0.5;entryY=0;entryDx=0;entryDy=0;entryPerimeter=0;" edge="1" parent="1" source="-v6uZ1tCKpK5pTf1HN96-2" target="-v6uZ1tCKpK5pTf1HN96-4">
          <mxGeometry relative="1" as="geometry" />
        </mxCell>
        <mxCell id="-v6uZ1tCKpK5pTf1HN96-9" style="edgeStyle=orthogonalEdgeStyle;rounded=0;orthogonalLoop=1;jettySize=auto;html=1;exitX=0.5;exitY=1;exitDx=0;exitDy=0;entryX=0.5;entryY=0;entryDx=0;entryDy=0;" edge="1" parent="1" source="-v6uZ1tCKpK5pTf1HN96-6" target="-v6uZ1tCKpK5pTf1HN96-7">
          <mxGeometry relative="1" as="geometry" />
        </mxCell>
        <mxCell id="-v6uZ1tCKpK5pTf1HN96-6" value="No" style="rounded=1;whiteSpace=wrap;html=1;absoluteArcSize=1;arcSize=14;strokeWidth=2;" vertex="1" parent="1">
          <mxGeometry x="530" y="-815" width="100" height="50" as="geometry" />
        </mxCell>
        <mxCell id="-v6uZ1tCKpK5pTf1HN96-10" style="edgeStyle=orthogonalEdgeStyle;rounded=0;orthogonalLoop=1;jettySize=auto;html=1;exitX=0.5;exitY=1;exitDx=0;exitDy=0;" edge="1" parent="1" source="-v6uZ1tCKpK5pTf1HN96-7" target="-v6uZ1tCKpK5pTf1HN96-8">
          <mxGeometry relative="1" as="geometry" />
        </mxCell>
        <mxCell id="-v6uZ1tCKpK5pTf1HN96-7" value="Display Error" style="rounded=1;whiteSpace=wrap;html=1;absoluteArcSize=1;arcSize=14;strokeWidth=2;" vertex="1" parent="1">
          <mxGeometry x="530" y="-710" width="100" height="50" as="geometry" />
        </mxCell>
        <mxCell id="-v6uZ1tCKpK5pTf1HN96-8" value="Back to Input Item Price" style="rounded=1;whiteSpace=wrap;html=1;absoluteArcSize=1;arcSize=14;strokeWidth=2;" vertex="1" parent="1">
          <mxGeometry x="530" y="-600" width="100" height="50" as="geometry" />
        </mxCell>
        <mxCell id="-v6uZ1tCKpK5pTf1HN96-15" style="edgeStyle=orthogonalEdgeStyle;rounded=0;orthogonalLoop=1;jettySize=auto;html=1;exitX=0.5;exitY=1;exitDx=0;exitDy=0;entryX=0;entryY=0.5;entryDx=0;entryDy=0;" edge="1" parent="1" source="-v6uZ1tCKpK5pTf1HN96-12" target="-v6uZ1tCKpK5pTf1HN96-14">
          <mxGeometry relative="1" as="geometry" />
        </mxCell>
        <mxCell id="-v6uZ1tCKpK5pTf1HN96-12" value="Yes" style="rounded=1;whiteSpace=wrap;html=1;absoluteArcSize=1;arcSize=14;strokeWidth=2;" vertex="1" parent="1">
          <mxGeometry x="220" y="-815" width="100" height="50" as="geometry" />
        </mxCell>
        <mxCell id="-v6uZ1tCKpK5pTf1HN96-14" value="Input Quantity" style="rounded=1;whiteSpace=wrap;html=1;absoluteArcSize=1;arcSize=14;strokeWidth=2;" vertex="1" parent="1">
          <mxGeometry x="290" y="-710" width="100" height="50" as="geometry" />
        </mxCell>
        <mxCell id="-v6uZ1tCKpK5pTf1HN96-20" style="edgeStyle=orthogonalEdgeStyle;rounded=0;orthogonalLoop=1;jettySize=auto;html=1;exitX=0;exitY=0.5;exitDx=0;exitDy=0;exitPerimeter=0;entryX=1;entryY=0.5;entryDx=0;entryDy=0;" edge="1" parent="1" source="-v6uZ1tCKpK5pTf1HN96-16" target="-v6uZ1tCKpK5pTf1HN96-18">
          <mxGeometry relative="1" as="geometry" />
        </mxCell>
        <mxCell id="-v6uZ1tCKpK5pTf1HN96-22" style="edgeStyle=orthogonalEdgeStyle;rounded=0;orthogonalLoop=1;jettySize=auto;html=1;exitX=1;exitY=0.5;exitDx=0;exitDy=0;exitPerimeter=0;entryX=0;entryY=0.5;entryDx=0;entryDy=0;" edge="1" parent="1" source="-v6uZ1tCKpK5pTf1HN96-16" target="-v6uZ1tCKpK5pTf1HN96-19">
          <mxGeometry relative="1" as="geometry" />
        </mxCell>
        <mxCell id="-v6uZ1tCKpK5pTf1HN96-16" value="Quantity Valid?" style="strokeWidth=2;html=1;shape=mxgraph.flowchart.decision;whiteSpace=wrap;" vertex="1" parent="1">
          <mxGeometry x="290" y="-565" width="100" height="100" as="geometry" />
        </mxCell>
        <mxCell id="-v6uZ1tCKpK5pTf1HN96-17" style="edgeStyle=orthogonalEdgeStyle;rounded=0;orthogonalLoop=1;jettySize=auto;html=1;exitX=0.5;exitY=1;exitDx=0;exitDy=0;entryX=0.5;entryY=0;entryDx=0;entryDy=0;entryPerimeter=0;" edge="1" parent="1" source="-v6uZ1tCKpK5pTf1HN96-14" target="-v6uZ1tCKpK5pTf1HN96-16">
          <mxGeometry relative="1" as="geometry" />
        </mxCell>
        <mxCell id="-v6uZ1tCKpK5pTf1HN96-25" style="edgeStyle=orthogonalEdgeStyle;rounded=0;orthogonalLoop=1;jettySize=auto;html=1;exitX=0.5;exitY=1;exitDx=0;exitDy=0;entryX=0.5;entryY=0;entryDx=0;entryDy=0;" edge="1" parent="1" source="-v6uZ1tCKpK5pTf1HN96-18" target="-v6uZ1tCKpK5pTf1HN96-23">
          <mxGeometry relative="1" as="geometry" />
        </mxCell>
        <mxCell id="-v6uZ1tCKpK5pTf1HN96-18" value="Yes" style="rounded=1;whiteSpace=wrap;html=1;absoluteArcSize=1;arcSize=14;strokeWidth=2;" vertex="1" parent="1">
          <mxGeometry x="100" y="-540" width="100" height="50" as="geometry" />
        </mxCell>
        <mxCell id="-v6uZ1tCKpK5pTf1HN96-19" value="No" style="rounded=1;whiteSpace=wrap;html=1;absoluteArcSize=1;arcSize=14;strokeWidth=2;" vertex="1" parent="1">
          <mxGeometry x="480" y="-540" width="100" height="50" as="geometry" />
        </mxCell>
        <mxCell id="-v6uZ1tCKpK5pTf1HN96-26" style="edgeStyle=orthogonalEdgeStyle;rounded=0;orthogonalLoop=1;jettySize=auto;html=1;exitX=0.5;exitY=1;exitDx=0;exitDy=0;entryX=0.5;entryY=0;entryDx=0;entryDy=0;" edge="1" parent="1" source="-v6uZ1tCKpK5pTf1HN96-23" target="-v6uZ1tCKpK5pTf1HN96-24">
          <mxGeometry relative="1" as="geometry" />
        </mxCell>
        <mxCell id="-v6uZ1tCKpK5pTf1HN96-23" value="Input Costumer Type" style="rounded=1;whiteSpace=wrap;html=1;absoluteArcSize=1;arcSize=14;strokeWidth=2;" vertex="1" parent="1">
          <mxGeometry x="100" y="-400" width="100" height="50" as="geometry" />
        </mxCell>
        <mxCell id="-v6uZ1tCKpK5pTf1HN96-24" value="Costumer Total Price" style="rounded=1;whiteSpace=wrap;html=1;absoluteArcSize=1;arcSize=14;strokeWidth=2;" vertex="1" parent="1">
          <mxGeometry x="100" y="-260" width="100" height="50" as="geometry" />
        </mxCell>
        <mxCell id="-v6uZ1tCKpK5pTf1HN96-31" style="edgeStyle=orthogonalEdgeStyle;rounded=0;orthogonalLoop=1;jettySize=auto;html=1;exitX=1;exitY=0.5;exitDx=0;exitDy=0;exitPerimeter=0;entryX=0;entryY=0.5;entryDx=0;entryDy=0;" edge="1" parent="1" source="-v6uZ1tCKpK5pTf1HN96-27" target="-v6uZ1tCKpK5pTf1HN96-30">
          <mxGeometry relative="1" as="geometry" />
        </mxCell>
        <mxCell id="-v6uZ1tCKpK5pTf1HN96-32" style="edgeStyle=orthogonalEdgeStyle;rounded=0;orthogonalLoop=1;jettySize=auto;html=1;exitX=0;exitY=0.5;exitDx=0;exitDy=0;exitPerimeter=0;entryX=1;entryY=0.5;entryDx=0;entryDy=0;" edge="1" parent="1" source="-v6uZ1tCKpK5pTf1HN96-27" target="-v6uZ1tCKpK5pTf1HN96-29">
          <mxGeometry relative="1" as="geometry" />
        </mxCell>
        <mxCell id="-v6uZ1tCKpK5pTf1HN96-34" style="edgeStyle=orthogonalEdgeStyle;rounded=0;orthogonalLoop=1;jettySize=auto;html=1;exitX=0.5;exitY=1;exitDx=0;exitDy=0;exitPerimeter=0;entryX=0.5;entryY=0;entryDx=0;entryDy=0;" edge="1" parent="1" source="-v6uZ1tCKpK5pTf1HN96-27" target="-v6uZ1tCKpK5pTf1HN96-33">
          <mxGeometry relative="1" as="geometry" />
        </mxCell>
        <mxCell id="-v6uZ1tCKpK5pTf1HN96-27" value="Total Price &amp;gt; $500?" style="strokeWidth=2;html=1;shape=mxgraph.flowchart.decision;whiteSpace=wrap;" vertex="1" parent="1">
          <mxGeometry x="290" y="-210" width="100" height="100" as="geometry" />
        </mxCell>
        <mxCell id="-v6uZ1tCKpK5pTf1HN96-28" style="edgeStyle=orthogonalEdgeStyle;rounded=0;orthogonalLoop=1;jettySize=auto;html=1;exitX=1;exitY=0.5;exitDx=0;exitDy=0;entryX=0.5;entryY=0;entryDx=0;entryDy=0;entryPerimeter=0;" edge="1" parent="1" source="-v6uZ1tCKpK5pTf1HN96-24" target="-v6uZ1tCKpK5pTf1HN96-27">
          <mxGeometry relative="1" as="geometry" />
        </mxCell>
        <mxCell id="-v6uZ1tCKpK5pTf1HN96-35" style="edgeStyle=orthogonalEdgeStyle;rounded=0;orthogonalLoop=1;jettySize=auto;html=1;exitX=0.5;exitY=1;exitDx=0;exitDy=0;entryX=0;entryY=0.5;entryDx=0;entryDy=0;" edge="1" parent="1" source="-v6uZ1tCKpK5pTf1HN96-29" target="-v6uZ1tCKpK5pTf1HN96-33">
          <mxGeometry relative="1" as="geometry" />
        </mxCell>
        <mxCell id="-v6uZ1tCKpK5pTf1HN96-29" value="Yes(discount" style="rounded=1;whiteSpace=wrap;html=1;absoluteArcSize=1;arcSize=14;strokeWidth=2;" vertex="1" parent="1">
          <mxGeometry x="100" y="-185" width="100" height="50" as="geometry" />
        </mxCell>
        <mxCell id="-v6uZ1tCKpK5pTf1HN96-36" style="edgeStyle=orthogonalEdgeStyle;rounded=0;orthogonalLoop=1;jettySize=auto;html=1;exitX=0.5;exitY=1;exitDx=0;exitDy=0;entryX=1;entryY=0.5;entryDx=0;entryDy=0;" edge="1" parent="1" source="-v6uZ1tCKpK5pTf1HN96-30" target="-v6uZ1tCKpK5pTf1HN96-33">
          <mxGeometry relative="1" as="geometry" />
        </mxCell>
        <mxCell id="-v6uZ1tCKpK5pTf1HN96-30" value="No(no discount)" style="rounded=1;whiteSpace=wrap;html=1;absoluteArcSize=1;arcSize=14;strokeWidth=2;" vertex="1" parent="1">
          <mxGeometry x="475" y="-185" width="100" height="50" as="geometry" />
        </mxCell>
        <mxCell id="-v6uZ1tCKpK5pTf1HN96-33" value="Display Total Price" style="rounded=1;whiteSpace=wrap;html=1;absoluteArcSize=1;arcSize=14;strokeWidth=2;" vertex="1" parent="1">
          <mxGeometry x="290" y="-50" width="100" height="50" as="geometry" />
        </mxCell>
        <mxCell id="-v6uZ1tCKpK5pTf1HN96-37" value="End" style="strokeWidth=2;html=1;shape=mxgraph.flowchart.terminator;whiteSpace=wrap;" vertex="1" parent="1">
          <mxGeometry x="290" y="60" width="100" height="60" as="geometry" />
        </mxCell>
        <mxCell id="-v6uZ1tCKpK5pTf1HN96-38" style="edgeStyle=orthogonalEdgeStyle;rounded=0;orthogonalLoop=1;jettySize=auto;html=1;exitX=0.5;exitY=1;exitDx=0;exitDy=0;entryX=0.5;entryY=0;entryDx=0;entryDy=0;entryPerimeter=0;" edge="1" parent="1" source="-v6uZ1tCKpK5pTf1HN96-33" target="-v6uZ1tCKpK5pTf1HN96-37">
          <mxGeometry relative="1" as="geometry" />
        </mxCell>
      </root>
    </mxGraphModel>
  </diagram>
</mxfile>
